# xmcd
#
# Track frame offsets:
#	150
#	15602
#	27415
#	45302
#	58015
#	73015
#	93321
#	108586
#	120238
#	129952
#	140488
#	159915
#	169509
#	180684
#	189061
#	200955
#	213827
#	232595
#	244206
#	256945
#	270748
#	283364
#	297898
#	309715
#	328707
#	341851
#
# Disc length: 4793 seconds
#
# Revision: 1
# Processed by: cddbd v1.4PL0 Copyright (c) Steve Scherf et al.
# Submitted via: audiograbber 1.80.04
#
DISCID=7912b71a
DTITLE=Joe DASSIN - FRANCAISE CANCONE
DYEAR=2001
DGENRE=
TTITLE0=Et Si Tu N'existaise Pas
TTITLE1=Siffler Su La Colline
TTITLE2=La Cafe Des 3 Colombes
TTITLE3=A Toi
TTITLE4=Salut
TTITLE5=L'ete Indien
TTITLE6=Le Petit Pain Au Chocolat
TTITLE7=Les Champs-Elysees
TTITLE8=La Fleur Aux Denis
TTITLE9=L'ametique
TTITLE10=La Vie Se Chante, La Vie Se Prelure
TTITLE11=Il Etait Une Fois Nous Deux
TTITLE12=Le Chemin De Papa
TTITLE13=Il Faut Naitre A Monaco
TTITLE14=Les Dalton
TTITLE15=Guantanamera
TTITLE16=Marie-Jeanne
TTITLE17=Taka Takata
TTITLE18=Ma Musique
TTITLE19=L'albatros
TTITLE20=C'est la Nuit
TTITLE21=Carolina
TTITLE22=Pianno Mecanique
TTITLE23=The Guitar Don't Lie
TTITLE24=Ca Va Pas Changer Le Monce
TTITLE25=Salut Les Amoureux
EXTD=
EXTT0=
EXTT1=
EXTT2=
EXTT3=
EXTT4=
EXTT5=
EXTT6=
EXTT7=
EXTT8=
EXTT9=
EXTT10=
EXTT11=
EXTT12=
EXTT13=
EXTT14=
EXTT15=
EXTT16=
EXTT17=
EXTT18=
EXTT19=
EXTT20=
EXTT21=
EXTT22=
EXTT23=
EXTT24=
EXTT25=
PLAYORDER=
